<?xml version="1.0" encoding="UTF-8"?>
<svg id="Layer_2" data-name="Layer 2" xmlns="http://www.w3.org/2000/svg" viewBox="0 0 55 74.52">
  <defs>
    <style>
      .cls-1 {
        fill: #fff;
      }
    </style>
  </defs>
  <g id="Layer_1-2" data-name="Layer 1">
    <path class="cls-1" d="m11.01,6.87c-.04-.81.44-1.34,1.07-1.7,2.82-1.6,5.62-3.26,8.51-4.73,2.26-1.14,3.93.02,3.96,2.59.08.79-.4,1.28-1.05,1.64-2.79,1.57-5.56,3.17-8.39,4.66-1.74.92-4-.49-4.1-2.46Z"/>
    <path class="cls-1" d="m50.73,50.44c-.54-.33-.99.08-1.43.32-1.24.69-2.46,1.4-3.69,2.09-2.7,1.51-5.61,2.76-7.11,5.76-.18.36-.58.62-.9.89-5.58,4.8-15.15,5-21.06.55-6.66-5.02-7.7-15.6-2.36-22.47.81-1.04,1.66-1.01,2.72-.46,2.29,1.2,4.64,1.37,7.09.45,2.13-.8,2.59-.59,3.7,1.46.45.82.94,1.6,1.99,1.54,2.31-.13,4.08.74,5.48,2.59.75,1,1.79,1.09,2.89.42,1.05-.64,2.11-1.24,3.19-1.81,2.52-1.35,2.77-1.89,1.86-4.59-.33-.99-.57-2,.02-2.86,1.32-1.93.82-3.62-.42-5.3-.25-.34-.44-.73-.66-1.09-3.94-6.64-7.88-13.29-11.83-19.92-1.03-1.73-1.73-2.02-3.32-1.15-3.93,2.14-7.83,4.33-11.71,6.56-1.38.79-1.57,1.66-.81,3.1.53,1,1.14,1.95,1.71,2.93.92,1.57.9,1.85-.54,2.92-1.79,1.32-2.94,3.04-3.36,5.21-.27,1.39-.92,2.51-1.87,3.57C2.99,39.31-.71,48.78.11,59.85c.34,4.51,1.76,8.65,4.3,12.4,1.03,1.51,2.42,2.3,4.29,2.27,2.64-.04,5.27,0,7.91,0,8.01,0,16.01,0,24.02.01,1.23,0,2.34-.12,3.03-1.36,1.13-2.04.68-3.43-1.52-4.61-1.14-.61-2.47-.83-3.52-1.66.11-.15.14-.25.21-.29.21-.11.42-.21.64-.3,4.36-1.61,7.41-4.73,9.78-8.6,1.07-1.76,1.66-3.69,1.89-5.72.06-.55.18-1.18-.42-1.54Zm-29.64-24.94c2.18.03,3.84,1.69,3.86,3.85.01,2.09-1.86,3.96-3.95,3.96-2.21,0-3.98-1.73-3.99-3.89,0-2.24,1.77-3.95,4.09-3.91Z"/>
    <path class="cls-1" d="m53.91,45.73c-6.15,3.47-12.31,6.91-18.45,10.4-1.23.7-1.89.19-2.49-.86-.63-1.1-.21-1.75.76-2.29,5.95-3.34,11.9-6.69,17.85-10.02.4-.23.86-.35,1.17-.48,1.14.07,1.84.54,2.16,1.5.33.96-.33,1.38-1,1.76Z"/>
  </g>
</svg>