<?xml version="1.0" encoding="UTF-8"?>
<svg id="Layer_2" data-name="Layer 2" xmlns="http://www.w3.org/2000/svg" viewBox="0 0 59 82.93">
  <defs>
    <style>
      .cls-1 {
        fill: #fff;
      }
    </style>
  </defs>
  <g id="Layer_1-2" data-name="Layer 1">
    <path class="cls-1" d="m51.94,29.18c-5.43-4.52-11.7-5.71-18.35-3.75-6.73,1.99-11.13,6.64-13.23,13.38-.19.6-.44.76-1.07.73-6.15-.28-11.3,1.75-15.2,6.64C1.65,49.25.27,52.8.04,56.68c-.37,6.11,1.97,11.23,6.35,15.43,3.12,2.98,6.79,5.1,10.76,6.73,5.03,2.07,10.3,3.21,15.65,4.04.98.15,1.7-.04,2.43-.67,3.92-3.39,7.73-6.88,11.17-10.77,3.62-4.09,6.83-8.45,9.19-13.39,2.01-4.2,3.38-8.57,3.41-12.07.03-7.48-2.22-12.76-7.06-16.8ZM14.13,45.22c2.15-.42,4.72,1.88,4.76,4.03.05,2.72-1.82,5.02-4.28,5.12-2.49.1-4.7-1.88-4.91-4.21-.23-2.57,1.96-5.17,4.44-4.94Zm6.33,22.97c-2.19,1.16-4.57,1.5-7,1.61-1.02.05-1.88-.55-2.7-1.08-2.71-1.72-4.42-4.13-4.62-7.38-.21-3.39,2.39-6.8,5.85-6.59,1.78.11,3.54,1.33,4.12,3.18.21.66.35.6.87.31,2.89-1.64,6.02-.58,7.06,2.35.21.59.2,1.18.21,1.79,0,2.76-1.44,4.57-3.77,5.81Z"/>
    <path class="cls-1" d="m29.66.01c6.39-.11,11.43,5.19,11.51,11.52.09,6.23-5.26,11.62-11.52,11.57-6.61-.05-11.67-4.93-11.68-11.76C17.96,5.14,23.39-.28,29.66.01Z"/>
  </g>
</svg>