<?xml version="1.0" encoding="UTF-8"?>
<svg id="Layer_2" data-name="Layer 2" xmlns="http://www.w3.org/2000/svg" viewBox="0 0 61 75.22">
  <defs>
    <style>
      .cls-1 {
        fill: #fff;
      }
    </style>
  </defs>
  <g id="Layer_1-2" data-name="Layer 1">
    <path class="cls-1" d="m25.34,14.49c1.34,0,1.68-.34,1.69-1.65,0-1.34.02-2.68,0-4.02-.01-.63.19-.94.87-.93,1.5.03,3.01.03,4.51,0,.63-.01.85.26.84.87-.02,1.42-.01,2.84,0,4.27,0,1.06.39,1.44,1.46,1.46,1.39.02,2.79.04,4.19,0,.67-.02.9.24.9.88-.02,1.45-.02,2.9,0,4.35.01.68-.24.97-.94.95-1.39-.03-2.79-.01-4.19,0-1.13.01-1.42.31-1.43,1.45,0,1.34-.04,2.69.01,4.02.04.83-.28,1.1-1.08,1.04-.69-.05-1.39-.01-2.09-.01-.75,0-1.5-.02-2.25,0-.59.02-.81-.23-.8-.81.02-1.4,0-2.79,0-4.19,0-1.23-.28-1.5-1.53-1.52-1.37-.01-2.74-.02-4.11,0-.64,0-.93-.23-.91-.89.02-1.48.02-2.95,0-4.43,0-.67.27-.88.92-.86,1.31.04,2.63.01,3.94,0Z"/>
    <path class="cls-1" d="m24.45,53.92c-.52-.46-1.03-.95-1.48-1.48-.49-.57-.84-.52-1.36,0-2.46,2.51-4.97,4.98-7.45,7.47-4.56,4.56-9.12,9.11-13.67,13.67-.7.7-.67.81.28,1.12,1.11.36,2.24.54,3.41.51,2.7-.05,5.25-.59,7.26-2.54,2.43-2.36,4.79-4.78,7.19-7.17.28-.28.43-.59.44-.99.03-1.05.13-2.09.14-3.14,0-.75.27-1.33.81-1.85,1.48-1.44,2.92-2.93,4.4-4.37.47-.45.54-.78.02-1.24Zm5.87-2.62c-1.61-1.58-3.19-3.18-4.79-4.77-.13-.13-.29-.23-.45-.35-.13.08-.26.14-.35.22-.71.7-1.41,1.4-2.11,2.1-.29.29-.14.52.08.75,1.62,1.61,3.23,3.22,4.84,4.84.35.36.62.3.94-.03.6-.62,1.2-1.23,1.82-1.82.34-.32.37-.59.02-.94ZM30.06,0C20.45,0,12.57,7.86,12.55,17.48c-.03,9.7,7.83,17.58,17.67,17.6.72-.03,1.55,0,2.38-.14.47-.08.85-.25,1.19-.59,4.38-4.39,8.76-8.77,13.15-13.15.34-.34.55-.73.59-1.2.07-.72.17-1.44.18-2.17C47.84,7.98,39.93,0,30.06,0Zm11.8,21.3c0,1.04-.38,1.41-1.4,1.43-1.29.01-2.58,0-3.87,0-1.26,0-1.29.02-1.29,1.33,0,1.26,0,2.52,0,3.78-.01,1.05-.36,1.44-1.39,1.44-2.5.03-5,.03-7.5,0-1.08-.01-1.41-.39-1.43-1.49-.01-1.31,0-2.63,0-3.95,0-1.04-.08-1.11-1.09-1.11-1.31,0-2.63,0-3.95,0-1.15,0-1.51-.35-1.51-1.48-.01-2.47-.01-4.94,0-7.41,0-1.12.39-1.49,1.51-1.5,1.37-.01,2.74-.04,4.11,0,.71.02.95-.27.95-.95-.02-1.39-.01-2.79,0-4.19.01-1.04.32-1.35,1.36-1.36,1.29-.02,2.58,0,3.87,0,1.21,0,2.42,0,3.63,0,1.18.01,1.46.29,1.47,1.5.01,1.37.02,2.74,0,4.11,0,.65.25.91.91.89,1.4-.03,2.79-.02,4.19,0,1.07.01,1.46.4,1.46,1.47.01,2.5.01,5,0,7.5Zm18.83-3.1c-1.13-2.59-4.44-3.25-6.52-1.24-2.14,2.07-4.23,4.21-6.34,6.31-6.86,6.86-13.71,13.72-20.58,20.56-.57.57-.6.9,0,1.47,1.45,1.36,2.82,2.8,4.23,4.21.76.75.76.75,1.51,0,5.38-5.37,10.75-10.75,16.13-16.13,3.5-3.49,6.99-6.99,10.49-10.48.88-.87,1.43-1.87,1.39-3.09,0-.6-.09-1.12-.31-1.62Zm-3.31,2.7c-3.66,3.66-7.32,7.33-10.99,10.98-.6.6-1.19.63-1.62.12-.46-.55-.34-1.11.14-1.59,3.68-3.68,7.36-7.37,11.04-11.04.34-.34.74-.55,1.24-.33.41.18.62.5.62,1,.02.33-.18.61-.43.87Z"/>
  </g>
</svg>