<?xml version="1.0" encoding="UTF-8"?>
<svg id="Layer_2" data-name="Layer 2" xmlns="http://www.w3.org/2000/svg" viewBox="0 0 92 67">
  <defs>
    <style>
      .cls-1 {
        fill: #fff;
      }
    </style>
  </defs>
  <g id="Layer_1-2" data-name="Layer 1">
    <path class="cls-1" d="m11.33,12.75c-.01-1.99,0-3.96,0-5.95,0-.99.37-1.34,1.37-1.36,1.01-.01,2.02,0,3.03,0h0c1.01,0,2.02,0,3.03,0,.84.01,1.27.42,1.25,1.14-.01.67-.45,1.05-1.25,1.06-1.5.01-3,.02-4.5,0-.54,0-.72.18-.71.71.02,1.47,0,2.93,0,4.4-.01.84-.41,1.32-1.07,1.34-.69.02-1.15-.49-1.15-1.35Z"/>
    <path class="cls-1" d="m20.01,30.18c0,.72-.46,1.09-1.39,1.1-.95,0-1.92,0-2.88,0h0c-1.04,0-2.08,0-3.12,0-.91-.02-1.28-.39-1.29-1.28-.02-2.04-.02-4.07,0-6.11,0-.8.4-1.23,1.07-1.24.72-.01,1.12.41,1.13,1.26.01,1.5.02,2.99,0,4.49,0,.5.15.68.66.67,1.48-.02,2.96,0,4.44,0,.92.01,1.36.39,1.36,1.11Z"/>
    <path class="cls-1" d="m15.53,19.91c2.68-2.67,5.35-5.33,8.03-7.99.92-.92,1.23-.95,2.19-.04,1.32,1.26,2.76,2.24,4.64,2.44,2.36.26,4.4-.33,6.16-1.93,1.68-1.53,1.69-1.52,3.32.1,2.47,2.46,4.95,4.91,7.42,7.37.92.9.92,1.35.04,2.28-4.32,4.55-9.65,6.82-15.93,6.94-6.28-.13-11.6-2.41-15.91-6.96-.86-.9-.85-1.35.02-2.22Z"/>
    <path class="cls-1" d="m51.55,26.92c0,1,.01,2.01,0,3.01-.02.99-.4,1.34-1.39,1.35-1.97.01-3.94,0-5.91,0-.92,0-1.38-.38-1.39-1.09,0-.73.48-1.13,1.43-1.13,1.45,0,2.91-.03,4.36.01.57.01.7-.19.69-.71-.02-1.41-.01-2.83,0-4.25,0-1,.34-1.45,1.08-1.47.77-.01,1.13.45,1.13,1.5.01.93,0,1.85,0,2.79Z"/>
    <path class="cls-1" d="m42.86,6.57c0-.72.45-1.11,1.36-1.12,2-.01,3.99-.01,5.98,0,.95,0,1.33.36,1.34,1.3.02,1.03,0,2.06,0,3.1s0,2.01,0,3.01c0,.73-.48,1.24-1.1,1.24-.63,0-1.09-.47-1.1-1.24-.02-1.52-.03-3.04,0-4.56,0-.5-.13-.67-.65-.66-1.48.03-2.95.01-4.43,0-.92,0-1.39-.39-1.4-1.09Z"/>
    <path class="cls-1" d="m57.93,3.17c-.45-1.93-2.03-3.15-4.16-3.15-7.45-.01-14.9,0-22.34,0h0C24.07,0,16.69,0,9.32,0,6.46,0,4.84,1.64,4.84,4.48v32.73c0,2.88,1.65,4.51,4.54,4.51,4.72,0,9.44,0,14.16,0,.53,0,.87.05.78.69-.07.46.18.58.59.57.7-.02,1.4,0,2.1,0h10.82c.34,0,.81.1.74-.49-.09-.7.27-.77.86-.76,4.75.01,9.5.01,14.24,0,2.68,0,4.37-1.69,4.37-4.36,0-10.99,0-21.97,0-32.96,0-.41-.01-.83-.1-1.23Zm-2.95,31.37c-4.05-.04-8.09-.06-12.14-.07-3.82,0-7.63,0-11.44,0v.06c-7.81,0-15.62,0-23.43.01-.69,0-.92-.14-.92-.88.03-9.72.02-19.45.02-29.17,0-1.6.66-2.26,2.27-2.26,14.73,0,29.48,0,44.21,0,1.61,0,2.27.65,2.27,2.25,0,9.75,0,19.5.01,29.25,0,.67-.22.81-.84.81Zm-31.31,21.72c0-.41-.13-.6-.58-.6-4.9,0-9.79,0-14.7,0-.42,0-.6.14-.59.58.02.9.04,1.81,0,2.7-.04.69.13.94.89.92,2.36-.05,4.72-.01,7.07-.01s4.82-.01,7.24,0c.5,0,.69-.15.68-.66-.03-.98-.01-1.96,0-2.93Zm10.02-.14c-.91-.02-1.59.64-1.62,1.59-.03.99.62,1.67,1.59,1.68.95,0,1.6-.63,1.63-1.58.02-.99-.61-1.66-1.6-1.69Zm0,0c-.91-.02-1.59.64-1.62,1.59-.03.99.62,1.67,1.59,1.68.95,0,1.6-.63,1.63-1.58.02-.99-.61-1.66-1.6-1.69Zm-10.02.14c0-.41-.13-.6-.58-.6-4.9,0-9.79,0-14.7,0-.42,0-.6.14-.59.58.02.9.04,1.81,0,2.7-.04.69.13.94.89.92,2.36-.05,4.72-.01,7.07-.01s4.82-.01,7.24,0c.5,0,.69-.15.68-.66-.03-.98-.01-1.96,0-2.93Zm0,0c0-.41-.13-.6-.58-.6-4.9,0-9.79,0-14.7,0-.42,0-.6.14-.59.58.02.9.04,1.81,0,2.7-.04.69.13.94.89.92,2.36-.05,4.72-.01,7.07-.01s4.82-.01,7.24,0c.5,0,.69-.15.68-.66-.03-.98-.01-1.96,0-2.93Zm10.02-.14c-.91-.02-1.59.64-1.62,1.59-.03.99.62,1.67,1.59,1.68.95,0,1.6-.63,1.63-1.58.02-.99-.61-1.66-1.6-1.69Zm9.83,0c-.91.01-1.59.72-1.59,1.64,0,.98.69,1.65,1.66,1.64.95-.01,1.63-.74,1.59-1.7-.04-.91-.75-1.59-1.66-1.57Zm9.85,0c-.92.03-1.58.73-1.57,1.67.01.93.7,1.6,1.64,1.59.95-.01,1.6-.67,1.6-1.63s-.72-1.67-1.68-1.64Zm0,0c-.92.03-1.58.73-1.57,1.67.01.93.7,1.6,1.64,1.59.95-.01,1.6-.67,1.6-1.63s-.72-1.67-1.68-1.64Zm-9.85,0c-.91.01-1.59.72-1.59,1.64,0,.98.69,1.65,1.66,1.64.95-.01,1.63-.74,1.59-1.7-.04-.91-.75-1.59-1.66-1.57Zm-9.83,0c-.91-.02-1.59.64-1.62,1.59-.03.99.62,1.67,1.59,1.68.95,0,1.6-.63,1.63-1.58.02-.99-.61-1.66-1.6-1.69Zm-10.02.14c0-.41-.13-.6-.58-.6-4.9,0-9.79,0-14.7,0-.42,0-.6.14-.59.58.02.9.04,1.81,0,2.7-.04.69.13.94.89.92,2.36-.05,4.72-.01,7.07-.01s4.82-.01,7.24,0c.5,0,.69-.15.68-.66-.03-.98-.01-1.96,0-2.93Zm63.9-31.88c-3.15,0-6.28,0-9.42,0-.34,0-.54.09-.49.49.29,2.46.5,4.93.88,7.37.24,1.53,1.14,2.71,2.62,3.33.51.21.61.5.61.99-.02,3.48-.01,6.96-.01,10.45,0,5.56-4.07,9.62-9.67,9.65-2.49.01-4.99,0-7.48,0q-1.74,0-1.74-1.74c0-3.92-2.52-6.42-6.48-6.42s-7.89,0-11.84,0c-.45,0-.68-.04-.73-.6-.16-1.7-1.39-2.83-3.12-2.84-6.18-.02-12.35-.02-18.53,0-1.72,0-2.97,1.13-3.13,2.82-.05.53-.25.62-.72.62-2.1-.02-4.2,0-6.31,0h0c-1.98,0-3.94-.02-5.92,0-3.5.03-6.07,2.6-6.1,6.09C0,56.27,0,57.94.01,59.62c0,.82-.07,1.65.09,2.47.57,3,3.03,4.91,6.34,4.91h49.74c.31,0,.62,0,.93-.01,2.71-.13,4.93-1.97,5.58-4.59.23-.92.18-1.85.15-2.77-.01-.62.2-.78.8-.78,2.75.03,5.5.01,8.25.01,7.02,0,12.08-5.04,12.07-12.01,0-3.45,0-6.91-.01-10.36,0-.47.13-.73.59-.93,1.53-.65,2.42-1.88,2.66-3.47.36-2.37.57-4.76.83-7.14.04-.38-.04-.59-.48-.58ZM25.74,60.6c0,.94-.36,1.31-1.31,1.31-5.81.01-11.62.01-17.43,0-.89,0-1.27-.39-1.27-1.29-.01-1.91-.01-3.82,0-5.73,0-.96.36-1.3,1.33-1.3,2.9,0,5.81,0,8.71,0s5.7,0,8.56,0c1.12,0,1.43.31,1.43,1.42,0,1.86,0,3.71,0,5.57Zm7.92.87c-2.11,0-3.67-1.59-3.65-3.71,0-2.2,1.54-3.72,3.72-3.7,2.17.01,3.7,1.59,3.65,3.76-.04,2.13-1.6,3.66-3.72,3.64Zm9.81,0c-2.14-.04-3.63-1.64-3.57-3.84.06-2.17,1.58-3.61,3.76-3.56s3.64,1.61,3.58,3.82c-.05,2.12-1.64,3.63-3.77,3.59Zm9.94,0c-2.15-.02-3.69-1.61-3.65-3.78.03-2.16,1.56-3.66,3.7-3.64,2.22.03,3.7,1.58,3.65,3.84-.04,2.07-1.62,3.59-3.7,3.58Zm-.03-5.36c-.92.03-1.58.73-1.57,1.67.01.93.7,1.6,1.64,1.59.95-.01,1.6-.67,1.6-1.63s-.72-1.67-1.68-1.64Zm-9.85,0c-.91.01-1.59.72-1.59,1.64,0,.98.69,1.65,1.66,1.64.95-.01,1.63-.74,1.59-1.7-.04-.91-.75-1.59-1.66-1.57Zm-9.83,0c-.91-.02-1.59.64-1.62,1.59-.03.99.62,1.67,1.59,1.68.95,0,1.6-.63,1.63-1.58.02-.99-.61-1.66-1.6-1.69Zm-10.61-.46c-4.9,0-9.79,0-14.7,0-.42,0-.6.14-.59.58.02.9.04,1.81,0,2.7-.04.69.13.94.89.92,2.36-.05,4.72-.01,7.07-.01s4.82-.01,7.24,0c.5,0,.69-.15.68-.66-.03-.98-.01-1.96,0-2.93,0-.41-.13-.6-.58-.6Zm.58.6c0-.41-.13-.6-.58-.6-4.9,0-9.79,0-14.7,0-.42,0-.6.14-.59.58.02.9.04,1.81,0,2.7-.04.69.13.94.89.92,2.36-.05,4.72-.01,7.07-.01s4.82-.01,7.24,0c.5,0,.69-.15.68-.66-.03-.98-.01-1.96,0-2.93Zm10.02-.14c-.91-.02-1.59.64-1.62,1.59-.03.99.62,1.67,1.59,1.68.95,0,1.6-.63,1.63-1.58.02-.99-.61-1.66-1.6-1.69Zm9.83,0c-.91.01-1.59.72-1.59,1.64,0,.98.69,1.65,1.66,1.64.95-.01,1.63-.74,1.59-1.7-.04-.91-.75-1.59-1.66-1.57Zm0,0c-.91.01-1.59.72-1.59,1.64,0,.98.69,1.65,1.66,1.64.95-.01,1.63-.74,1.59-1.7-.04-.91-.75-1.59-1.66-1.57Zm-9.83,0c-.91-.02-1.59.64-1.62,1.59-.03.99.62,1.67,1.59,1.68.95,0,1.6-.63,1.63-1.58.02-.99-.61-1.66-1.6-1.69Zm-10.02.14c0-.41-.13-.6-.58-.6-4.9,0-9.79,0-14.7,0-.42,0-.6.14-.59.58.02.9.04,1.81,0,2.7-.04.69.13.94.89.92,2.36-.05,4.72-.01,7.07-.01s4.82-.01,7.24,0c.5,0,.69-.15.68-.66-.03-.98-.01-1.96,0-2.93Zm0,0c0-.41-.13-.6-.58-.6-4.9,0-9.79,0-14.7,0-.42,0-.6.14-.59.58.02.9.04,1.81,0,2.7-.04.69.13.94.89.92,2.36-.05,4.72-.01,7.07-.01s4.82-.01,7.24,0c.5,0,.69-.15.68-.66-.03-.98-.01-1.96,0-2.93Zm0,0c0-.41-.13-.6-.58-.6-4.9,0-9.79,0-14.7,0-.42,0-.6.14-.59.58.02.9.04,1.81,0,2.7-.04.69.13.94.89.92,2.36-.05,4.72-.01,7.07-.01s4.82-.01,7.24,0c.5,0,.69-.15.68-.66-.03-.98-.01-1.96,0-2.93ZM91.94,10.6c-.13-1.77-1.55-3.26-3.33-3.29-3.81-.07-7.62-.07-11.43,0-1.75.03-3.1,1.34-3.38,3.07-.13.81,0,1.64-.07,2.47-.06.69.16.93.89.92,2.74-.04,5.49-.02,8.24-.02s5.6,0,8.39.01c.52,0,.76-.13.73-.69-.04-.82.02-1.65-.04-2.47Zm-.88,5.21c-2.72.05-5.44.02-8.17.02h-8.09q-1.07,0-1.07,1.1v1.24c0,2.69,1.48,4.16,4.18,4.17,3.32,0,6.64,0,9.96,0,.28,0,.57-.01.85-.05,1.87-.25,3.18-1.7,3.23-3.57.01-.64-.04-1.3.02-1.93.07-.73-.15-.98-.92-.96Z"/>
  </g>
</svg>