<?xml version="1.0" encoding="UTF-8"?>
<svg id="Layer_2" data-name="Layer 2" xmlns="http://www.w3.org/2000/svg" viewBox="0 0 66 78.49">
  <defs>
    <style>
      .cls-1 {
        fill: #fff;
      }
    </style>
  </defs>
  <g id="Layer_1-2" data-name="Layer 1">
    <g>
      <path class="cls-1" d="m8.94,51.8c-2.19,0-4.38,0-6.56,0-.52,0-1.07.02-1.53-.28-.39-.25-.65-.65-.67-1.11-.16-4.33-.49-8.67.62-12.93,1.45-5.59,4.81-9.72,9.85-12.49.37-.2.65-.16,1.01.04,5.28,3,10.58,3.05,15.87,0,.38-.22.69-.23,1.07-.02,2.91,1.6,5.33,3.74,7.21,6.5.26.39.22.64-.11.94-2.84,2.64-5.51,5.45-8.25,8.2-3.59,3.61-7.23,7.18-10.74,10.87-.27.28-.6.3-.95.3-2.27,0-4.54,0-6.81,0v-.02Z"/>
      <path class="cls-1" d="m26.79,67.93c-.76-.02-1.44-.31-1.99-.87-2.34-2.34-4.69-4.67-7-7.04-1.15-1.18-1.09-2.8.04-4.01,1.25-1.34,2.66-2.51,3.78-3.97.27-.35.5-.13.71.07.92.89,1.82,1.79,2.74,2.68.41.4.8.81,1.24,1.16.6.47,1.31.41,1.88-.11.5-.46.65-1.25.3-1.85-.68-1.14-1.72-1.93-2.66-2.83-.46-.43-.92-.86-1.32-1.35-.21-.25-.2-.45.05-.67,1.54-1.36,2.95-2.85,4.37-4.33.28-.29.45-.13.65.07.98,1,1.96,2,2.95,2.99.29.29.57.58.9.81.71.51,1.53.41,2.09-.21.58-.64.59-1.4-.03-2.09-.97-1.09-2.02-2.11-3.08-3.12-.98-.94-.97-.94-.03-1.89,1.23-1.24,2.47-2.47,3.67-3.74.36-.38.59-.21.85.06,1.17,1.18,2.34,2.38,3.53,3.54.82.8,1.74.72,2.39-.18.45-.62.35-1.49-.31-2.16-1.1-1.14-2.21-2.27-3.36-3.36-.44-.42-.41-.66.02-1.06,1.16-1.08,2.26-2.22,3.4-3.31.37-.35.37-.61-.01-.95-.41-.36-.81-.74-1.17-1.15-.64-.74-.58-1.63.1-2.23.59-.52,1.53-.45,2.14.16,4.63,4.65,9.26,9.29,13.89,13.94.9.9.88,1.91-.04,2.62-.56.44-1.24.44-1.84-.04-.36-.29-.68-.64-1.01-.97-.7-.7-.69-.7-1.37-.03-3.74,3.76-7.48,7.51-11.22,11.27-4.28,4.3-8.57,8.61-12.85,12.91-.66.67-1.39,1.18-2.4,1.21Z"/>
      <path class="cls-1" d="m19.72,23.41c-6.9-.01-11.82-5.52-11.74-11.84C8.06,4.75,13.3.09,19.51,0c6.84-.1,11.81,5.4,11.78,11.7-.03,6.64-5.26,11.65-11.57,11.71Z"/>
      <path class="cls-1" d="m66,31.06c-.01.77-.25,1.28-.78,1.52-.63.29-1.32.31-1.88-.21-.71-.67-1.4-1.35-2.08-2.05-.35-.36-.59-.39-.97.01-1.34,1.41-2.74,2.77-4.1,4.17-.27.27-.44.25-.7,0-1.76-1.77-3.52-3.54-5.29-5.3-.27-.27-.31-.46-.01-.76,1.38-1.35,2.72-2.74,4.1-4.08.36-.35.41-.6.04-.94-.65-.61-1.28-1.25-1.91-1.87-.68-.67-.75-1.61-.18-2.31.56-.68,1.46-.77,2.24-.22.17.12.32.25.46.39,3.52,3.54,7.03,7.09,10.56,10.63.34.34.52.72.5,1.03Z"/>
      <path class="cls-1" d="m7.99,78.48c-.66,0-1.12-.38-1.39-.93-.28-.57-.21-1.16.23-1.64.76-.82,1.53-1.62,2.32-2.41,1.95-1.95,3.83-3.98,5.88-5.82.29-.26.2-.48,0-.73-1.01-1.2-.98-1.83.1-2.93q1.18-1.19,2.36,0c1.37,1.38,2.75,2.76,4.13,4.13.29.29.35.5.02.79-.44.38-.85.82-1.3,1.19-.84.69-1.22.69-2.12.08-.79-.53-.8-.54-1.49.15-2.31,2.31-4.61,4.62-6.93,6.93-.33.33-.68.64-1.03.94-.22.19-.49.28-.79.27Z"/>
    </g>
  </g>
</svg>